<svg version="1.2" baseProfile="tiny-ps" xmlns="http://www.w3.org/2000/svg" viewBox="0 0 300 300" width="30" height="30">
	<title>poi_marker_geneator</title>
	<style>
		tspan { white-space:pre }
		.shp0 { fill: #646464;stroke: #000000;stroke-width: 10 } 
		.shp1 { fill: #ed5050;stroke: #000000;stroke-width: 10 } 
		.shp2 { fill: #64dd3b;stroke: #000000;stroke-width: 10 } 
		.shp3 { fill: #e8df3e;stroke: #000000;stroke-width: 10 } 
		.shp4 { fill: #ffffff;stroke: #000000;stroke-width: 10 } 
	</style>
	<path id="Basic_grey" class="shp0" d="M150 150C136.89 150 125.69 145.31 116.42 135.94C107.14 126.56 102.5 115.25 102.5 102C102.5 88.75 107.14 77.44 116.42 68.06C125.69 58.69 136.89 54 150 54C163.11 54 174.31 58.69 183.58 68.06C192.86 77.44 197.5 88.75 197.5 102C197.5 115.25 192.86 126.56 183.58 135.94C174.31 145.31 163.11 150 150 150ZM217.17 34.12C198.61 15.37 176.22 6 150 6C123.77 6 101.39 15.37 82.83 34.12C64.28 52.88 55 75.5 55 102C55 115.63 57.04 126.81 61.12 135.56L128.85 280.69C130.7 284.81 133.58 288.06 137.48 290.44C141.37 292.81 145.55 294 150 294C154.45 294 158.63 292.81 162.52 290.44C166.42 288.06 169.36 284.81 171.34 280.69L238.88 135.56C242.96 126.81 245 115.63 245 102C245 75.5 235.72 52.88 217.17 34.12Z" />
	<path id="Basic_red" class="shp1" d="M150 150C136.89 150 125.69 145.31 116.42 135.94C107.14 126.56 102.5 115.25 102.5 102C102.5 88.75 107.14 77.44 116.42 68.06C125.69 58.69 136.89 54 150 54C163.11 54 174.31 58.69 183.58 68.06C192.86 77.44 197.5 88.75 197.5 102C197.5 115.25 192.86 126.56 183.58 135.94C174.31 145.31 163.11 150 150 150ZM217.17 34.12C198.61 15.37 176.22 6 150 6C123.77 6 101.39 15.37 82.83 34.12C64.28 52.88 55 75.5 55 102C55 115.63 57.04 126.81 61.12 135.56L128.85 280.69C130.7 284.81 133.58 288.06 137.48 290.44C141.37 292.81 145.55 294 150 294C154.45 294 158.63 292.81 162.52 290.44C166.42 288.06 169.36 284.81 171.34 280.69L238.88 135.56C242.96 126.81 245 115.63 245 102C245 75.5 235.72 52.88 217.17 34.12Z" />
	<path id="Basic_green" class="shp2" d="M150 150C136.89 150 125.69 145.31 116.42 135.94C107.14 126.56 102.5 115.25 102.5 102C102.5 88.75 107.14 77.44 116.42 68.06C125.69 58.69 136.89 54 150 54C163.11 54 174.31 58.69 183.58 68.06C192.86 77.44 197.5 88.75 197.5 102C197.5 115.25 192.86 126.56 183.58 135.94C174.31 145.31 163.11 150 150 150ZM217.17 34.12C198.61 15.37 176.22 6 150 6C123.77 6 101.39 15.37 82.83 34.12C64.28 52.88 55 75.5 55 102C55 115.63 57.04 126.81 61.12 135.56L128.85 280.69C130.7 284.81 133.58 288.06 137.48 290.44C141.37 292.81 145.55 294 150 294C154.45 294 158.63 292.81 162.52 290.44C166.42 288.06 169.36 284.81 171.34 280.69L238.88 135.56C242.96 126.81 245 115.63 245 102C245 75.5 235.72 52.88 217.17 34.12Z" />
	<path id="Basic_yellow" class="shp3" d="M150 150C136.89 150 125.69 145.31 116.42 135.94C107.14 126.56 102.5 115.25 102.5 102C102.5 88.75 107.14 77.44 116.42 68.06C125.69 58.69 136.89 54 150 54C163.11 54 174.31 58.69 183.58 68.06C192.86 77.44 197.5 88.75 197.5 102C197.5 115.25 192.86 126.56 183.58 135.94C174.31 145.31 163.11 150 150 150ZM217.17 34.12C198.61 15.37 176.22 6 150 6C123.77 6 101.39 15.37 82.83 34.12C64.28 52.88 55 75.5 55 102C55 115.63 57.04 126.81 61.12 135.56L128.85 280.69C130.7 284.81 133.58 288.06 137.48 290.44C141.37 292.81 145.55 294 150 294C154.45 294 158.63 292.81 162.52 290.44C166.42 288.06 169.36 284.81 171.34 280.69L238.88 135.56C242.96 126.81 245 115.63 245 102C245 75.5 235.72 52.88 217.17 34.12Z" />
	<path id="Number_background" class="shp4" d="M149.5 180.91C107.25 180.91 73.09 146.75 73.09 104.5C73.09 62.25 107.25 28.09 149.5 28.09C191.75 28.09 225.91 62.25 225.91 104.5C225.91 146.75 191.75 180.91 149.5 180.91Z" />
	<path id="0 " fill="#000000" aria-label="0"  d="M147.38 75.27Q139.38 75.27 135.33 83.17Q131.33 91.01 131.33 106.8Q131.33 122.54 135.33 130.44Q139.38 138.28 147.38 138.28Q155.43 138.28 159.42 130.44Q163.48 122.54 163.48 106.8Q163.48 91.01 159.42 83.17Q155.43 75.27 147.38 75.27ZM147.38 67.07Q160.25 67.07 167.01 77.27Q173.83 87.42 173.83 106.8Q173.83 126.13 167.01 136.34Q160.25 146.49 147.38 146.49Q134.51 146.49 127.69 136.34Q120.92 126.13 120.92 106.8Q120.92 87.42 127.69 77.27Q134.51 67.07 147.38 67.07Z" />
	<path id="1 " fill="#000000" aria-label="1"  d="M132.02 140L132.02 131.28L148.94 131.28L148.94 72.89L130.54 76.58L130.54 67.15L148.84 63.45L159.2 63.45L159.2 131.28L176.11 131.28L176.11 140L132.02 140Z" />
	<path id="2 " fill="#000000" aria-label="2"  d="M139.15 131.28L175.29 131.28L175.29 140L126.69 140L126.69 131.28Q132.59 125.18 142.74 114.93Q152.94 104.62 155.56 101.65Q160.53 96.06 162.48 92.22Q164.48 88.32 164.48 84.58Q164.48 78.48 160.17 74.63Q155.91 70.79 149.04 70.79Q144.17 70.79 138.74 72.48Q133.36 74.17 127.2 77.6L127.2 67.15Q133.46 64.63 138.89 63.35Q144.33 62.07 148.84 62.07Q160.73 62.07 167.81 68.02Q174.88 73.96 174.88 83.91Q174.88 88.63 173.09 92.88Q171.35 97.09 166.68 102.83Q165.4 104.32 158.53 111.44Q151.66 118.52 139.15 131.28Z" />
	<path id="3 " fill="#000000" aria-label="3"  d="M161.6 98.73Q169.04 100.32 173.19 105.34Q177.4 110.37 177.4 117.75Q177.4 129.08 169.6 135.28Q161.81 141.49 147.45 141.49Q142.64 141.49 137.51 140.56Q132.43 139.59 127 137.69L127 127.7Q131.3 130.21 136.43 131.49Q141.56 132.77 147.15 132.77Q156.89 132.77 161.96 128.93Q167.09 125.08 167.09 117.75Q167.09 110.98 162.32 107.19Q157.61 103.34 149.15 103.34L140.23 103.34L140.23 94.83L149.56 94.83Q157.2 94.83 161.25 91.81Q165.3 88.73 165.3 82.99Q165.3 77.09 161.09 73.96Q156.94 70.79 149.15 70.79Q144.89 70.79 140.02 71.71Q135.15 72.63 129.31 74.58L129.31 65.35Q135.2 63.71 140.33 62.89Q145.51 62.07 150.07 62.07Q161.86 62.07 168.73 67.45Q175.6 72.79 175.6 81.91Q175.6 88.27 171.96 92.68Q168.32 97.04 161.6 98.73Z" />
	<path id="4 " fill="#000000" aria-label="4"  d="M158.68 113.34L158.68 72.48L132.54 113.34L158.68 113.34ZM124.13 111.96L155.97 63.45L168.99 63.45L168.99 113.34L179.91 113.34L179.91 121.95L168.99 121.95L168.99 140L158.68 140L158.68 121.95L124.13 121.95L124.13 111.96Z" />
	<path id="5 " fill="#000000" aria-label="5"  d="M130.33 101.91L130.33 63.45L170.99 63.45L170.99 72.17L139.82 72.17L139.82 90.94Q142.07 90.17 144.33 89.81Q146.58 89.4 148.84 89.4Q161.66 89.4 169.14 96.42Q176.63 103.44 176.63 115.44Q176.63 127.8 168.94 134.67Q161.25 141.49 147.25 141.49Q142.43 141.49 137.41 140.67Q132.43 139.85 127.1 138.21L127.1 127.8Q131.71 130.31 136.64 131.54Q141.56 132.77 147.04 132.77Q155.91 132.77 161.09 128.11Q166.27 123.44 166.27 115.44Q166.27 107.44 161.09 102.78Q155.91 98.11 147.04 98.11Q142.89 98.11 138.74 99.04Q134.64 99.96 130.33 101.91Z" />
	<path id="6 " fill="#000000" aria-label="6"  d="M153.66 97.6Q146.69 97.6 142.58 102.37Q138.53 107.14 138.53 115.44Q138.53 123.7 142.58 128.52Q146.69 133.28 153.66 133.28Q160.63 133.28 164.68 128.52Q168.78 123.7 168.78 115.44Q168.78 107.14 164.68 102.37Q160.63 97.6 153.66 97.6ZM174.22 65.15L174.22 74.58Q170.32 72.73 166.32 71.76Q162.37 70.79 158.48 70.79Q148.22 70.79 142.79 77.71Q137.41 84.63 136.64 98.63Q139.66 94.17 144.22 91.81Q148.79 89.4 154.27 89.4Q165.81 89.4 172.47 96.42Q179.19 103.39 179.19 115.44Q179.19 127.23 172.22 134.36Q165.25 141.49 153.66 141.49Q140.38 141.49 133.36 131.34Q126.33 121.13 126.33 101.8Q126.33 83.65 134.94 72.89Q143.56 62.07 158.07 62.07Q161.96 62.07 165.91 62.84Q169.91 63.61 174.22 65.15Z" />
	<path id="7 " fill="#000000" aria-label="7"  d="M127.61 72.17L127.61 63.45L176.83 63.45L176.83 67.86L149.04 140L138.23 140L164.37 72.17L127.61 72.17Z" />
	<path id="8 " fill="#000000" aria-label="8"  d="M152.38 103.65Q144.99 103.65 140.74 107.6Q136.53 111.55 136.53 118.47Q136.53 125.39 140.74 129.34Q144.99 133.28 152.38 133.28Q159.76 133.28 164.01 129.34Q168.27 125.34 168.27 118.47Q168.27 111.55 164.01 107.6Q159.81 103.65 152.38 103.65ZM142.02 99.24Q135.35 97.6 131.61 93.04Q127.92 88.47 127.92 81.91Q127.92 72.73 134.43 67.4Q140.99 62.07 152.38 62.07Q163.81 62.07 170.32 67.4Q176.83 72.73 176.83 81.91Q176.83 88.47 173.09 93.04Q169.4 97.6 162.78 99.24Q170.27 100.98 174.42 106.06Q178.63 111.14 178.63 118.47Q178.63 129.59 171.81 135.54Q165.04 141.49 152.38 141.49Q139.71 141.49 132.89 135.54Q126.13 129.59 126.13 118.47Q126.13 111.14 130.33 106.06Q134.53 100.98 142.02 99.24ZM138.23 82.89Q138.23 88.83 141.92 92.17Q145.66 95.5 152.38 95.5Q159.04 95.5 162.78 92.17Q166.58 88.83 166.58 82.89Q166.58 76.94 162.78 73.61Q159.04 70.27 152.38 70.27Q145.66 70.27 141.92 73.61Q138.23 76.94 138.23 82.89Z" />
	<path id="9 " fill="#000000" aria-label="9"  d="M130.54 138.41L130.54 128.98Q134.43 130.82 138.43 131.8Q142.43 132.77 146.28 132.77Q156.53 132.77 161.91 125.9Q167.35 118.98 168.12 104.93Q165.14 109.34 160.58 111.7Q156.02 114.06 150.48 114.06Q139 114.06 132.28 107.14Q125.61 100.16 125.61 88.12Q125.61 76.32 132.59 69.2Q139.56 62.07 151.15 62.07Q164.42 62.07 171.4 72.27Q178.42 82.42 178.42 101.8Q178.42 119.9 169.81 130.72Q161.25 141.49 146.74 141.49Q142.84 141.49 138.84 140.72Q134.84 139.95 130.54 138.41ZM151.15 105.96Q158.12 105.96 162.17 101.19Q166.27 96.42 166.27 88.12Q166.27 79.86 162.17 75.09Q158.12 70.27 151.15 70.27Q144.17 70.27 140.07 75.09Q136.02 79.86 136.02 88.12Q136.02 96.42 140.07 101.19Q144.17 105.96 151.15 105.96Z" />
	<path id="10 " fill="#000000" aria-label="10"  d="M101.02 142L101.02 133.28L117.94 133.28L117.94 74.89L99.54 78.58L99.54 69.15L117.84 65.45L128.2 65.45L128.2 133.28L145.11 133.28L145.11 142L101.02 142ZM174.53 72.27Q166.53 72.27 162.48 80.17Q158.48 88.01 158.48 103.8Q158.48 119.54 162.48 127.44Q166.53 135.28 174.53 135.28Q182.58 135.28 186.58 127.44Q190.63 119.54 190.63 103.8Q190.63 88.01 186.58 80.17Q182.58 72.27 174.53 72.27ZM174.53 64.07Q187.4 64.07 194.17 74.27Q200.99 84.42 200.99 103.8Q200.99 123.13 194.17 133.34Q187.4 143.49 174.53 143.49Q161.66 143.49 154.84 133.34Q148.08 123.13 148.08 103.8Q148.08 84.42 154.84 74.27Q161.66 64.07 174.53 64.07Z" />
</svg>